<svg xmlns="http://www.w3.org/2000/svg" width="16" height="16" viewBox="0 0 16 16" fill="none">
  <path fill-rule="evenodd" clip-rule="evenodd" d="M2.1441 8.00002C2.52919 8.53112 3.31845 9.53186 4.35774 10.4032C5.43534 11.3066 6.69716 12 7.99995 12C9.30274 12 10.5646 11.3066 11.6422 10.4032C12.6814 9.53186 13.4707 8.53112 13.8558 8.00002C13.4707 7.46892 12.6814 6.46818 11.6422 5.59688C10.5646 4.69346 9.30273 4.00002 7.99995 4.00002C6.69716 4.00002 5.43534 4.69346 4.35774 5.59688C3.31845 6.46818 2.52919 7.46892 2.1441 8.00002ZM3.50113 4.57512C4.67561 3.59047 6.23747 2.66669 7.99995 2.66669C9.76242 2.66669 11.3243 3.59047 12.4988 4.57512C13.6846 5.56931 14.5621 6.69811 14.9675 7.26202C15.2864 7.7056 15.2864 8.29444 14.9675 8.73802C14.5621 9.30193 13.6846 10.4307 12.4988 11.4249C11.3243 12.4096 9.76242 13.3334 7.99995 13.3334C6.23747 13.3334 4.67561 12.4096 3.50113 11.4249C2.31525 10.4307 1.43782 9.30193 1.0324 8.73802C0.713485 8.29444 0.713485 7.7056 1.0324 7.26202C1.43782 6.69811 2.31525 5.56931 3.50113 4.57512Z" fill="white"/>
  <path fill-rule="evenodd" clip-rule="evenodd" d="M7.99995 9.33335C8.73633 9.33335 9.33328 8.7364 9.33328 8.00002C9.33328 7.26364 8.73633 6.66669 7.99995 6.66669C7.26357 6.66669 6.66661 7.26364 6.66661 8.00002C6.66661 8.7364 7.26357 9.33335 7.99995 9.33335ZM7.99995 10.6667C9.47271 10.6667 10.6666 9.47278 10.6666 8.00002C10.6666 6.52726 9.47271 5.33335 7.99995 5.33335C6.52719 5.33335 5.33328 6.52726 5.33328 8.00002C5.33328 9.47278 6.52719 10.6667 7.99995 10.6667Z" fill="white"/>
</svg>