<svg width="20" height="20" viewBox="0 0 20 20" fill="none" xmlns="http://www.w3.org/2000/svg">
<path d="M15.25 12V10.0312C15.25 8.63328 14.1167 7.5 12.7188 7.5H11.5938C11.1278 7.5 10.75 7.12224 10.75 6.65625V5.53125C10.75 4.13328 9.61672 3 8.21875 3H6.8125M7.375 12L9.625 14.25M9.625 14.25L11.875 12M9.625 14.25L9.625 9.75M8.5 3H4.84375C4.37776 3 4 3.37776 4 3.84375V16.7812C4 17.2472 4.37776 17.625 4.84375 17.625H14.4062C14.8722 17.625 15.25 17.2472 15.25 16.7812V9.75C15.25 6.02208 12.2279 3 8.5 3Z" stroke="white" stroke-width="1.5" stroke-linecap="round" stroke-linejoin="round"/>
</svg>