<svg xmlns="http://www.w3.org/2000/svg" width="25" height="24" viewBox="0 0 25 24" fill="none">
  <path d="M9.2999 12.8L11.6999 15.2L15.6999 9.60002M22.0999 12C22.0999 13.3529 21.4283 14.5488 20.4003 15.2727C20.6152 16.5114 20.2444 17.8317 19.2879 18.7882C18.3314 19.7447 17.0111 20.1155 15.7725 19.9007C15.0485 20.9285 13.8526 21.6 12.4999 21.6C11.1472 21.6 9.95134 20.9286 9.22741 19.9008C7.9886 20.1159 6.66796 19.7451 5.71132 18.7884C4.75469 17.8318 4.3839 16.5112 4.59895 15.2724C3.57127 14.5484 2.8999 13.3526 2.8999 12C2.8999 10.6474 3.57133 9.45151 4.59908 8.72758C4.38414 7.48887 4.75494 6.16838 5.7115 5.21183C6.66806 4.25526 7.98858 3.88446 9.2273 4.09942C9.95122 3.07154 11.1471 2.40002 12.4999 2.40002C13.8526 2.40002 15.0485 3.07149 15.7724 4.0993C17.0112 3.88423 18.3318 4.25502 19.2885 5.21165C20.2451 6.16828 20.6159 7.48889 20.4009 8.72768C21.4285 9.45162 22.0999 10.6474 22.0999 12Z" stroke="#ED4A26" stroke-width="1.5" stroke-linecap="round" stroke-linejoin="round"/>
</svg>